<svg xmlns="http://www.w3.org/2000/svg" version="1.0" width="551.000000pt" height="631.000000pt" viewBox="0 0 551.000000 631.000000" preserveAspectRatio="xMidYMid meet">

<g transform="translate(0.000000,631.000000) scale(0.100000,-0.100000)" fill="#eb4432" stroke="none">
<path d="M2645 6190 c-40 -21 -306 -172 -592 -336 -285 -164 -698 -401 -918 -527 -723 -414 -1036 -599 -1056 -623 -33 -40 -34 -3047 -1 -3084 7 -8 22 -30 33 -48 24 -40 84 -79 424 -274 149 -85 407 -234 575 -330 1037 -595 1461 -836 1596 -907 l81 -43 54 27 c63 33 233 129 634 360 160 92 490 282 735 422 1059 608 1196 687 1212 697 10 6 23 24 30 41 6 16 21 43 32 58 21 29 21 31 21 1540 0 1171 -3 1517 -12 1533 -16 28 -218 149 -1038 619 -1182 679 -1327 761 -1520 864 -68 37 -90 43 -149 46 -63 3 -74 0 -141 -35z m786 -459 c951 -544 1828 -1057 1829 -1071 0 -3 -87 -57 -192 -120 -402 -238 -507 -300 -658 -387 -85 -49 -380 -220 -655 -380 -593 -343 -961 -553 -973 -553 -8 0 -249 137 -942 535 -190 109 -482 276 -650 373 -508 291 -820 475 -868 513 l-24 18 84 54 c146 94 327 199 1578 919 272 157 558 320 635 363 77 43 149 84 160 91 11 7 23 13 26 13 3 1 295 -165 650 -368z m-3102 -1258 c78 -42 450 -254 1161 -663 467 -268 1004 -577 1110 -638 l105 -61 3 -1153 c3 -1185 -3 -1718 -20 -1718 -5 0 -213 116 -461 259 -1419 812 -1956 1123 -2002 1157 -20 15 -20 26 -20 1412 0 768 3 1409 8 1425 4 15 12 27 19 27 6 0 50 -21 97 -47z m5017 10 c4 -21 8 -662 8 -1425 1 -1376 1 -1387 -19 -1402 -48 -35 -940 -553 -1975 -1146 -411 -235 -487 -277 -493 -270 -8 8 -13 1989 -7 2458 l5 414 170 97 c94 54 303 174 465 267 1400 808 1814 1044 1832 1044 4 0 10 -17 14 -37z" fill="#eb4432"/>
</g>
</svg>