<svg xmlns:xlink="http://www.w3.org/1999/xlink" class="text-red-600 w-8 h-8" viewBox="0 0 32 32" fill="none" xmlns="http://www.w3.org/2000/svg" width="32"  height="32" >
                                <path stroke="#EB4432" d="M.5.5h31v31H.5z" fill="none"></path>
                                <path d="M25 17.255A23.93 23.93 0 0 1 16 19c-3.183 0-6.22-.62-9-1.745M16 16h.01M20 10V8a2 2 0 0 0-2-2h-4a2 2 0 0 0-2 2v2h8ZM9 24h14a2 2 0 0 0 2-2V12a2 2 0 0 0-2-2H9a2 2 0 0 0-2 2v10a2 2 0 0 0 2 2Z" stroke="#EB4432" stroke-linecap="round" stroke-linejoin="round" fill="none"></path>
                            </svg>