<svg xmlns:xlink="http://www.w3.org/1999/xlink" class="text-red-600 w-8 h-8" viewBox="0 0 32 32" fill="none" xmlns="http://www.w3.org/2000/svg" width="32"  height="32" >
                                <path stroke="#EB4432" d="M.5.5h31v31H.5z" fill="none"></path>
                                <path d="M23 24H9a2 2 0 0 1-2-2V10a2 2 0 0 1 2-2h10a2 2 0 0 1 2 2v1m2 13a2 2 0 0 1-2-2V11m2 13a2 2 0 0 0 2-2v-9a2 2 0 0 0-2-2h-2m-4-3h-4m-2 12h6m-6-8h6v4h-6v-4Z" stroke="#EB4432" stroke-linecap="round" stroke-linejoin="round" fill="none"></path>
                            </svg>