<svg xmlns:xlink="http://www.w3.org/1999/xlink" xmlns="http://www.w3.org/2000/svg" class="w-5 h-5 text-white" viewBox="0 0 24 24" stroke-width="2" stroke="currentColor" stroke-linecap="round" fill="none" stroke-linejoin="round" width="24"  height="24" >
              <path stroke="none" d="M0 0h24v24H0z" fill="none" stroke-width="2px"></path>
              <path d="M3 4m0 1a1 1 0 0 1 1 -1h16a1 1 0 0 1 1 1v14a1 1 0 0 1 -1 1h-16a1 1 0 0 1 -1 -1z" stroke="#FFFFFF" fill="none" stroke-width="2px"></path>
              <path d="M7 8v1" stroke="#FFFFFF" fill="none" stroke-width="2px"></path>
              <path d="M17 8v1" stroke="#FFFFFF" fill="none" stroke-width="2px"></path>
              <path d="M12.5 4c-.654 1.486 -1.26 3.443 -1.5 9h2.5c-.19 2.867 .094 5.024 .5 7" stroke="#FFFFFF" fill="none" stroke-width="2px"></path>
              <path d="M7 15.5c3.667 2 6.333 2 10 0" stroke="#FFFFFF" fill="none" stroke-width="2px"></path>
            </svg>